<svg width="350" height="150" viewBox="0 0 350 150" fill="none" xmlns="http://www.w3.org/2000/svg">
<g clip-path="url(#clip0_60_13)">
<rect width="350" height="150" rx="20" fill="#010514"/>
<path d="M37.04 116.21L27.32 106.94V84.8L37.04 75.98V116.21ZM36.77 32.6V72.83L27.05 64.1V41.87L36.77 32.6ZM65.9124 120.17L75.1824 110.45H97.4124L106.142 120.17H65.9124ZM63.2124 75.98L72.9324 85.34V107.39L63.2124 116.21V75.98ZM109.022 116.21L99.3024 106.94V84.8L109.022 75.98V116.21ZM65.8224 28.73H106.052L97.1424 38.45H75.0924L65.8224 28.73ZM62.9424 72.83V32.6L72.6624 41.33V63.65L62.9424 72.83ZM108.752 32.6V72.83L99.0324 64.1V41.87L108.752 32.6ZM152.295 75.08H163.635V86.33H152.295V75.08ZM152.295 48.35H163.635V59.87H152.295V48.35ZM209.877 120.17L219.147 110.45H241.377L250.107 120.17H209.877ZM207.177 75.98L216.897 85.34V107.39L207.177 116.21V75.98ZM217.617 79.22C215.517 77.54 213.387 75.89 211.227 74.27L217.617 69.5H242.187L248.487 74.27L242.187 79.22H217.617ZM209.787 28.73H250.017L241.107 38.45H219.057L209.787 28.73ZM252.717 32.6V72.83L242.997 64.1V41.87L252.717 32.6ZM281.86 120.17L291.13 110.45H313.36L322.09 120.17H281.86ZM324.97 116.21L315.25 106.94V84.8L324.97 75.98V116.21ZM289.6 79.22C287.5 77.54 285.37 75.89 283.21 74.27L289.6 69.5H314.17L320.47 74.27L314.17 79.22H289.6ZM281.77 28.73H322L313.09 38.45H291.04L281.77 28.73ZM278.89 72.83V32.6L288.61 41.33V63.65L278.89 72.83Z" fill="white"/>
</g>
<defs>
<clipPath id="clip0_60_13">
<rect width="350" height="150" rx="20" fill="white"/>
</clipPath>
</defs>
</svg>
